<?xml version="1.0" encoding="UTF-8"?>
<svg width="16px" height="17px" viewBox="0 0 16 17" version="1.1" xmlns="http://www.w3.org/2000/svg" xmlns:xlink="http://www.w3.org/1999/xlink">
    <!-- Generator: Sketch 63.1 (92452) - https://sketch.com -->
    <title>Icon-with-clearspace-black</title>
    <desc>Created with Sketch.</desc>
    <g id="Page-1" stroke="none" stroke-width="1" fill="none" fill-rule="evenodd">
        <g id="2020-Banner" transform="translate(-257.000000, -119.000000)" fill-rule="nonzero">
            <g id="Icon-with-clearspace-black" transform="translate(257.500000, 119.111111)">
                <path d="M9.36118873,4.27686849 C7.88742515,4.27686849 6.43335551,4.91035706 5.32392992,6.15435795 L5.32392992,0.0164116212 L3.128055,0.0164116212 L3.128055,10.3524507 L3.128055,10.3524507 C3.128055,13.706986 5.8491018,16.4280328 9.20363717,16.4280328 C12.5581725,16.4280328 15.2792193,13.706986 15.2792193,10.3524507 C15.2792193,6.99791528 12.7157241,4.27686849 9.36118873,4.27686849 Z M9.20363717,14.0877356 C7.13905522,14.0877356 5.46835218,12.4137503 5.46835218,10.3524507 C5.46835218,8.29115103 7.14233755,6.61716567 9.20363717,6.61716567 C11.2682191,6.61716567 12.9389222,8.29115103 12.9389222,10.3524507 C12.9389222,12.4137503 11.2649368,14.0877356 9.20363717,14.0877356 Z" id="Shape" fill="#FFFFFF"></path>
                <circle id="Oval" fill="#C4F8F9" cx="1.5295631" cy="14.9247283" r="1.5033045"></circle>
            </g>
        </g>
    </g>
</svg>